PathFileType	4	(X/Y/Z)	RBDS06static.trc
DataRate	CameraRate	NumFrames	NumMarkers	Units	OrigDataRate	OrigDataStartFrame	OrigNumFrames
150.000000	150.000000	4	48	mm	150.000000	131	150
Frame#	Time	L.Ankle			L.Ankle.Medial			L.ASIS			L.GTR			L.Heel.Bottom			L.Heel.Lateral			L.Heel.Top			L.HF			L.Iliac.Crest			L.Knee			L.Knee.Medial			L.MT1			L.MT2			L.MT5			L.PSIS			L.Shank.Bottom.Lateral			L.Shank.Bottom.Medial			L.Shank.Top.Lateral			L.Shank.Top.Medial			L.Thigh.Bottom.Lateral			L.Thigh.Bottom.Medial			L.Thigh.Top.Lateral			L.Thigh.Top.Medial			L.TT			R.Ankle			R.Ankle.Medial			R.ASIS			R.GTR			R.Heel.Bottom			R.Heel.Lateral			R.Heel.Top			R.HF			R.Iliac.Crest			R.Knee			R.Knee.Medial			R.MT1			R.MT2			R.MT5			R.PSIS			R.Shank.Bottom.Lateral			R.Shank.Bottom.Medial			R.Shank.Top.Lateral			R.Shank.Top.Medial			R.Thigh.Bottom.Lateral			R.Thigh.Bottom.Medial			R.Thigh.Top.Lateral			R.Thigh.Top.Medial			R.TT			
		X1	Y1	Z1	X2	Y2	Z2	X3	Y3	Z3	X4	Y4	Z4	X5	Y5	Z5	X6	Y6	Z6	X7	Y7	Z7	X8	Y8	Z8	X9	Y9	Z9	X10	Y10	Z10	X11	Y11	Z11	X12	Y12	Z12	X13	Y13	Z13	X14	Y14	Z14	X15	Y15	Z15	X16	Y16	Z16	X17	Y17	Z17	X18	Y18	Z18	X19	Y19	Z19	X20	Y20	Z20	X21	Y21	Z21	X22	Y22	Z22	X23	Y23	Z23	X24	Y24	Z24	X25	Y25	Z25	X26	Y26	Z26	X27	Y27	Z27	X28	Y28	Z28	X29	Y29	Z29	X30	Y30	Z30	X31	Y31	Z31	X32	Y32	Z32	X33	Y33	Z33	X34	Y34	Z34	X35	Y35	Z35	X36	Y36	Z36	X37	Y37	Z37	X38	Y38	Z38	X39	Y39	Z39	X40	Y40	Z40	X41	Y41	Z41	X42	Y42	Z42	X43	Y43	Z43	X44	Y44	Z44	X45	Y45	Z45	X46	Y46	Z46	X47	Y47	Z47	X48	Y48	Z48	

132	0.8733333333333334	708.898193359375	108.8869476318359	1042.840576171875	730.3092041015625	121.1031799316406	1128.562744140625	857.2418823242188	1036.42529296875	1105.55908203125	767.8258666992188	948.5938110351563	1049.034057617188	638.0767822265625	43.28445434570313	1078.493408203125	672.63671875	64.83225250244141	1038.636108398438	649.5330200195313	93.19936370849609	1082.0361328125	719.4501953125	487.1446228027344	1038.749389648438	766.765869140625	1106.54931640625	1066.3310546875	726.1852416992188	558.1223754882813	1042.831787109375	718.5242309570313	535.7653198242188	1174.862670898438	864.6925048828125	63.72654724121094	1122.552368164063	878.8956298828125	65.14991760253906	1077.662719726563	831.7642822265625	49.5726203918457	1012.380187988281	688.271484375	1074.996704101563	1177.586303710938	700.059814453125	194.2711639404297	1038.551147460938	660.9600830078125	192.6335144042969	1076.345703125	690.0317993164063	273.5333862304688	1030.813110351563	652.7587890625	273.374755859375	1069.583984375	729.9837036132813	640.5242309570313	1033.189697265625	672.5211181640625	635.9939575195313	1078.056518554688	716.48095703125	750.4107666015625	1032.872436523438	667.1768798828125	746.5004272460938	1080.420654296875	778.1141357421875	456.5961303710938	1092.314208984375	700.8963623046875	115.8195648193359	1412.635864257813	724.0556030273438	122.6053009033203	1324.950073242188	857.346923828125	1036.2060546875	1341.09716796875	778.5813598632813	940.4998168945313	1392.791381835938	631.7311401367188	42.62967681884766	1368.827026367188	661.1025390625	65.51738739013672	1410.461303710938	641.4761962890625	92.03263854980469	1367.543823242188	723.2327880859375	491.4815979003906	1402.882934570313	787.6942749023438	1094.109985351563	1386.03955078125	732.1301879882813	550.9122924804688	1399.498901367188	731.0631713867188	533.8412475585938	1270.257568359375	857.474853515625	66.23867034912109	1331.513916015625	859.768798828125	72.24788665771484	1370.779052734375	819.3377075195313	49.18528366088867	1443.644287109375	691.4923095703125	1073.13818359375	1275.288818359375	685.63671875	207.0091094970703	1412.697509765625	651.0526123046875	207.3890075683594	1374.486572265625	678.038818359375	291.485107421875	1417.316772460938	643.2347412109375	287.764404296875	1376.7158203125	746.5632934570313	647.2857055664063	1413.543701171875	681.9047241210938	650.3887329101563	1377.1298828125	745.11328125	758.0390014648438	1420.193969726563	685.5153198242188	760.6422119140625	1382.262939453125	777.619384765625	457.5018920898438	1356.508544921875	
133	0.88	708.8882446289063	108.9010314941406	1042.839233398438	730.298828125	121.0892105102539	1128.5634765625	857.24755859375	1036.419921875	1105.557983398438	767.832275390625	948.5956420898438	1049.029418945313	638.0794677734375	43.2838134765625	1078.494995117188	672.6331787109375	64.8330078125	1038.63427734375	649.5411376953125	93.19343566894531	1082.025268554688	719.448486328125	487.1440124511719	1038.745361328125	766.7683715820313	1106.549926757813	1066.331298828125	726.1951904296875	558.1264038085938	1042.829467773438	718.5250244140625	535.7708740234375	1174.861572265625	864.6942749023438	63.74108505249023	1122.549560546875	878.8937377929688	65.14691925048828	1077.662963867188	831.7688598632813	49.57120132446289	1012.368530273438	688.2762451171875	1074.99169921875	1177.586669921875	700.0531005859375	194.2803955078125	1038.548828125	660.96142578125	192.6305999755859	1076.338623046875	690.0286254882813	273.537353515625	1030.799072265625	652.7654418945313	273.3748168945313	1069.576538085938	729.9833374023438	640.5293579101563	1033.193237304688	672.5316772460938	635.9964599609375	1078.050415039063	716.4847412109375	750.412841796875	1032.867553710938	667.1817016601563	746.5001220703125	1080.421142578125	778.1114501953125	456.6047973632813	1092.305297851563	700.891845703125	115.8328628540039	1412.6396484375	724.048095703125	122.6083221435547	1324.956176757813	857.3508911132813	1036.206787109375	1341.081787109375	778.5810546875	940.4942626953125	1392.787841796875	631.7410278320313	42.62760925292969	1368.82177734375	661.0892333984375	65.51837921142578	1410.468994140625	641.4716796875	92.03194427490234	1367.536499023438	723.2446899414063	491.4777526855469	1402.87939453125	787.7025146484375	1094.121459960938	1386.038696289063	732.1328125	550.9086303710938	1399.48681640625	731.061279296875	533.8555908203125	1270.252075195313	857.4806518554688	66.23468780517578	1331.519775390625	859.7718505859375	72.25146484375	1370.784057617188	819.3396606445313	49.20011901855469	1443.633544921875	691.50341796875	1073.136596679688	1275.285522460938	685.641357421875	207.0037841796875	1412.6953125	651.05029296875	207.3920745849609	1374.490966796875	678.0401000976563	291.500244140625	1417.316528320313	643.239501953125	287.7782897949219	1376.713256835938	746.564697265625	647.2847290039063	1413.547485351563	681.9133911132813	650.3858642578125	1377.136474609375	745.1202392578125	758.0404052734375	1420.193359375	685.5226440429688	760.6486206054688	1382.263916015625	777.625	457.5005187988281	1356.505249023438	
134	0.8866666666666667	708.8856811523438	108.9029846191406	1042.841552734375	730.297607421875	121.1009368896484	1128.558837890625	857.2520751953125	1036.423583984375	1105.552124023438	767.84716796875	948.5857543945313	1049.03271484375	638.0806884765625	43.27765655517578	1078.496337890625	672.6382446289063	64.83768463134766	1038.6318359375	649.528076171875	93.20277404785156	1082.02392578125	719.4560546875	487.1364135742188	1038.746826171875	766.7679443359375	1106.538940429688	1066.328369140625	726.1939697265625	558.1215209960938	1042.82763671875	718.5278930664063	535.7645263671875	1174.864379882813	864.6910400390625	63.73123550415039	1122.5546875	878.89501953125	65.14894866943359	1077.663330078125	831.7661743164063	49.57333374023438	1012.383178710938	688.2872314453125	1074.990966796875	1177.582885742188	700.062255859375	194.2654113769531	1038.54931640625	660.9630126953125	192.6319885253906	1076.347778320313	690.00341796875	273.5924987792969	1030.823486328125	652.7622680664063	273.3775329589844	1069.59033203125	729.98291015625	640.5262451171875	1033.196533203125	672.5314331054688	636.001953125	1078.055908203125	716.4811401367188	750.4142456054688	1032.867309570313	667.1869506835938	746.4993286132813	1080.421508789063	778.1174926757813	456.6018981933594	1092.304077148438	700.9037475585938	115.8130111694336	1412.651611328125	724.0552978515625	122.6080322265625	1324.958740234375	857.3505859375	1036.210327148438	1341.090209960938	778.5999755859375	940.47509765625	1392.783447265625	631.7416381835938	42.62306213378906	1368.836547851563	661.0947875976563	65.51477813720703	1410.465087890625	641.4796752929688	92.02809906005859	1367.535766601563	723.248779296875	491.4928588867188	1402.887939453125	787.70947265625	1094.111938476563	1386.03857421875	732.1282958984375	550.9020385742188	1399.503662109375	731.043701171875	533.8489990234375	1270.262817382813	857.487060546875	66.23943328857422	1331.522827148438	859.7769165039063	72.24967956542969	1370.78857421875	819.3335571289063	49.18706130981445	1443.63427734375	691.516845703125	1073.133056640625	1275.294555664063	685.636474609375	207.0107116699219	1412.696533203125	651.057373046875	207.388916015625	1374.484497070313	678.04296875	291.4934387207031	1417.31982421875	643.2394409179688	287.7727966308594	1376.720947265625	746.5664672851563	647.2821044921875	1413.546875	681.9161987304688	650.3917236328125	1377.123046875	745.117431640625	758.0381469726563	1420.192016601563	685.5264892578125	760.6497802734375	1382.263671875	777.6199951171875	457.5075073242188	1356.513916015625	
135	0.8933333333333334	708.8897705078125	108.8899612426758	1042.83984375	730.296630859375	121.1107635498047	1128.562133789063	857.24853515625	1036.415161132813	1105.54931640625	767.841552734375	948.5856323242188	1049.029907226563	638.0831909179688	43.28915405273438	1078.492553710938	672.6416625976563	64.83490753173828	1038.6396484375	649.5374145507813	93.20025634765625	1082.026489257813	719.4475708007813	487.1558227539063	1038.747924804688	766.755615234375	1106.5361328125	1066.335083007813	726.2017211914063	558.1198120117188	1042.825073242188	718.5343017578125	535.7621459960938	1174.861328125	864.6942138671875	63.74102401733398	1122.55029296875	878.898681640625	65.15342712402344	1077.663330078125	831.7634887695313	49.571533203125	1012.382202148438	688.29248046875	1074.997680664063	1177.586303710938	700.0653076171875	194.2731018066406	1038.546997070313	660.9635009765625	192.6280212402344	1076.340087890625	689.9935913085938	273.6057434082031	1030.832885742188	652.7649536132813	273.3780212402344	1069.589721679688	729.9854736328125	640.5267333984375	1033.198608398438	672.5296020507813	635.9902954101563	1078.058471679688	716.4927978515625	750.4214477539063	1032.863891601563	667.1942138671875	746.4974365234375	1080.4189453125	778.1165161132813	456.6004028320313	1092.307983398438	700.893798828125	115.8324432373047	1412.635375976563	724.0499877929688	122.6218185424805	1324.959106445313	857.3610229492188	1036.207153320313	1341.07958984375	778.605224609375	940.4923706054688	1392.783447265625	631.7356567382813	42.63601303100586	1368.817016601563	661.093505859375	65.52213287353516	1410.466064453125	641.474609375	92.03230285644531	1367.5361328125	723.2398071289063	491.4922485351563	1402.89111328125	787.7130737304688	1094.11474609375	1386.037475585938	732.1338500976563	550.8983764648438	1399.503051757813	731.042236328125	533.8519897460938	1270.2509765625	857.4740600585938	66.22995758056641	1331.524169921875	859.7770385742188	72.25214385986328	1370.79345703125	819.3429565429688	49.19070816040039	1443.638427734375	691.5191040039063	1073.141357421875	1275.2998046875	685.6409301757813	207.0114898681641	1412.702880859375	651.0570068359375	207.4014892578125	1374.491943359375	678.0418701171875	291.50390625	1417.32080078125	643.2545776367188	287.7710266113281	1376.70751953125	746.5738525390625	647.2894897460938	1413.547241210938	681.9193115234375	650.3949584960938	1377.135131835938	745.123046875	758.0475463867188	1420.198852539063	685.5363159179688	760.6460571289063	1382.274658203125	777.6289672851563	457.5072021484375	1356.521728515625	
